<svg width="132" height="21" viewBox="0 0 132 21" fill="none" xmlns="http://www.w3.org/2000/svg">
<g id="ecell logo">
<g id="Group">
<g id="Layer 1-2">
<path id="Vector" d="M38.0129 11.8811L38.1653 10.7131L37.0723 11.1525C36.8007 11.2607 36.5093 11.285 36.2266 11.2254L35.5179 11.0708L35.4009 11.7884C35.2419 12.7643 34.8886 13.6873 34.3498 14.5263C32.1904 17.8979 27.6905 18.8827 24.3189 16.7255C22.3251 15.4493 21.0798 13.2523 20.9826 10.8964L35.8844 8.53161L35.9617 8.49849C36.2311 8.38368 36.5203 8.35497 36.8029 8.40796L37.9599 8.63539L37.5912 7.51593C36.8846 5.37638 35.4516 3.52829 33.5505 2.31168C28.9734 -0.620545 22.8638 0.719711 19.9338 5.29689C19.6181 5.79149 19.3465 6.31037 19.1235 6.84912C18.3772 4.91491 17.0303 3.23462 15.244 2.09088C10.6668 -0.843553 4.55952 0.496703 1.6273 5.07168C0.834624 6.31036 0.337824 7.6727 0.150144 9.11894L0 10.2892L1.09296 9.84979C1.36234 9.7416 1.65379 9.7151 1.93862 9.77692L2.64739 9.93148L2.76442 9.21388C2.92339 8.23574 3.27667 7.315 3.81542 6.47597C5.97485 3.10435 10.4725 2.11737 13.8464 4.2768C15.8402 5.55302 17.0833 7.74998 17.1804 10.1037L2.27866 12.4685L2.19917 12.5016C1.932 12.6142 1.64054 12.6473 1.35792 12.5921L0.200928 12.3647L0.571872 13.4842C1.27622 15.6215 2.71363 17.4718 4.61472 18.6884C9.1919 21.6206 15.2992 20.2804 18.2292 15.7054C18.5472 15.2108 18.8166 14.6897 19.0396 14.1488C19.7859 16.0852 21.1328 17.7655 22.9212 18.9114C27.4984 21.8436 33.608 20.5034 36.538 15.9262C37.3306 14.6897 37.8274 13.3274 38.0129 11.8811ZM19.7947 9.6047V9.61132L19.7903 9.6864C19.7925 9.6599 19.7947 9.6312 19.7947 9.60249V9.6047ZM19.1456 8.66851C19.1456 8.67955 19.1456 8.69059 19.1434 8.70163C19.1434 8.69059 19.1434 8.67955 19.1434 8.66851H19.1478H19.1456ZM19.1301 9.69964C19.1301 9.6886 19.1323 9.67536 19.1345 9.66211C19.1345 9.67536 19.1345 9.6886 19.1367 9.69964H19.1301Z" fill="#0D87F4"/>
</g>
<g id="Layer 1-2_2">
<g id="Group_2">
<path id="Vector_2" d="M43.6521 2.21973H56.3636V3.96846H45.5576V9.87486H54.8268V11.6236H45.5576V17.795H56.3636V19.5437H43.6521V2.21973Z" fill="white"/>
<path id="Vector_3" d="M58.1918 11.4883H66.1362V13.2105H58.1918V11.4883Z" fill="white"/>
<path id="Vector_4" d="M67.6465 10.8792C67.6465 5.68821 71.4597 1.875 76.8627 1.875C81.2058 1.875 84.5421 4.33692 85.6549 8.01986H83.6412C82.6079 5.37247 80.093 3.62374 76.8605 3.62374C72.5438 3.62374 69.552 6.69506 69.552 10.8792C69.552 15.0634 72.5438 18.1347 76.8605 18.1347C80.0908 18.1347 82.6079 16.386 83.6412 13.7386H85.6549C84.5421 17.4193 81.2058 19.8834 76.8627 19.8834C71.4597 19.8834 67.6465 16.0702 67.6465 10.8792Z" fill="white"/>
<path id="Vector_5" d="M88.4083 2.21973H101.12V3.96846H90.3138V9.87486H99.583V11.6236H90.3138V17.795H101.12V19.5437H88.4083V2.21973Z" fill="white"/>
<path id="Vector_6" d="M104.114 2.21973H106.021V17.7905H116.509V19.5393H104.116V2.21973H104.114Z" fill="white"/>
<path id="Vector_7" d="M118.969 2.21973H120.877V17.7905H131.365V19.5393H118.971V2.21973H118.969Z" fill="white"/>
</g>
</g>
</g>
</g>
</svg>
