<svg width="88" height="38" viewBox="0 0 88 38" fill="none" xmlns="http://www.w3.org/2000/svg">
<path d="M13.0649 0.753399C12.3873 0.824196 11.7198 0.955673 10.6376 1.23886C9.57565 1.51193 7.52256 2.55365 6.55163 3.31218C3.37591 5.7496 1.57566 8.87475 1.08009 12.7888C0.867699 14.4171 0.857586 31.2869 1.06997 32.3589C1.42396 34.23 2.53647 35.747 4.16479 36.5966C4.89298 36.9708 6.07629 37.3045 6.54152 37.2439L6.84493 37.2135L6.8955 25.4816L6.95619 13.7496L7.1888 13.0416C8.24063 9.85579 10.8095 7.82292 14.228 7.46894C14.9258 7.39814 16.4024 7.62065 17.2823 7.93417C19.3759 8.67248 21.257 10.5233 21.9751 12.546C22.4606 13.8912 22.4606 13.8608 22.4606 23.125C22.4707 28.1516 22.5112 32.1061 22.5718 32.3893C22.8045 33.6333 23.2596 34.5233 24.1294 35.4436C25.0699 36.4348 26.3948 37.0922 27.7501 37.2338L28.3367 37.2944V25.0163C28.3266 13.2844 28.3165 12.6978 28.1344 11.7774C27.1938 7.15541 24.2406 3.51446 19.9423 1.70409C19.0017 1.29954 18.7691 1.22874 17.4138 0.915218C16.6249 0.73317 14.1167 0.642147 13.0649 0.753399Z" fill="white"/>
<path d="M71.9759 0.763451C69.6801 0.975838 67.3742 1.86585 65.4424 3.25143C64.5019 3.92906 62.8331 5.62817 62.2263 6.50807C59.9608 9.85572 59.1517 14.2552 60.3552 16.7938C61.0227 18.2097 62.2869 19.2514 64.4715 20.1718C66.383 20.9708 68.163 21.4461 70.8634 21.8506C72.6839 22.1338 74.2616 22.3968 74.9595 22.5485C76.8811 22.9733 77.6497 23.1654 78.8027 23.4992C80.2591 23.9139 80.4411 24.015 80.6636 24.4802C80.9064 24.996 80.8659 25.2489 80.3501 26.2704C79.9557 27.0289 79.6927 27.3829 78.9544 28.1212C78.1554 28.9202 77.9127 29.1022 76.9822 29.5573C75.6169 30.2248 74.8685 30.3968 73.4121 30.3968C71.1264 30.3968 69.5385 29.6888 67.6776 27.8481C66.3122 26.503 64.7446 25.5826 63.0758 25.1477C62.4488 24.9758 62.0442 24.9455 61.134 24.9657C60.5069 24.9859 59.9608 25.0264 59.9304 25.0668C59.7888 25.1983 60.2237 27.2413 60.5878 28.2122C61.9127 31.7318 64.4917 34.5232 67.8799 36.0807C68.6283 36.4347 69.8925 36.819 70.9747 37.0415C72.0771 37.264 74.9089 37.2944 75.7686 37.0921C77.3059 36.728 77.7205 36.6066 78.651 36.2324C80.2793 35.575 81.8368 34.5434 83.091 33.2792C85.5789 30.7912 86.9241 27.7672 87.0657 24.3791C87.1061 23.2463 87.0859 22.8317 86.9544 22.3159C86.742 21.4764 86.2161 20.6269 85.5183 19.9897C84.4968 19.0592 81.9481 17.9771 79.1972 17.2995C78.6207 17.1579 77.9633 16.996 77.7509 16.9354C77.5385 16.8747 77.1441 16.7938 76.8912 16.7432C76.6384 16.7027 75.6978 16.5308 74.8078 16.3589C73.9178 16.1971 72.8255 16.0049 72.3805 15.9341C69.7711 15.5397 68.608 15.2666 67.182 14.7204C66.1807 14.3361 65.8976 13.9821 65.9886 13.2236C66.1504 11.8987 67.5663 9.85572 69.0227 8.86457C70.0847 8.1465 71.5107 7.6307 72.8963 7.47899C74.2313 7.3374 76.2136 7.82286 77.5082 8.61173C77.852 8.82412 78.6004 9.43095 79.1668 9.97709C80.9367 11.656 82.4437 12.5055 84.3451 12.8899C84.9317 13.0112 86.1858 13.0416 86.6813 12.9404C86.9645 12.8797 86.9949 12.8393 86.9949 12.4752C86.9949 11.929 86.5701 10.2906 86.1858 9.30958C84.5069 5.07191 80.8356 1.94676 76.4058 0.975838C75.3742 0.753338 73.1693 0.642086 71.9759 0.763451Z" fill="white"/>
<path d="M31.5747 1.66033C31.5747 2.16601 31.9186 3.39989 32.2523 4.09774C32.7378 5.10912 33.7593 6.14072 34.7808 6.65652C36.2068 7.36449 35.9034 7.34426 46.3914 7.31392L55.7972 7.28358L55.7668 6.82846C55.7365 6.30254 55.4027 5.12935 55.16 4.66411C54.5127 3.47069 53.4508 2.4492 52.3484 1.98397C51.0943 1.45805 51.3572 1.46816 41.112 1.46816C31.7466 1.46816 31.5747 1.46816 31.5747 1.66033Z" fill="white"/>
<path d="M33.2532 16.5783C32.6868 16.7806 32.171 17.2357 31.8777 17.8021C31.6552 18.237 31.6249 18.419 31.6249 19.3596C31.6249 20.2799 31.6552 20.4822 31.8676 20.8969C32.1508 21.443 32.3632 21.6655 32.9397 22.0094L33.3442 22.242L43.458 22.2723C54.6944 22.3027 54.2393 22.3229 54.9776 21.6251C55.635 21.0081 55.7867 20.5631 55.7968 19.3596C55.7968 18.4493 55.7664 18.237 55.5642 17.8729C55.2911 17.3469 54.8764 16.912 54.4213 16.6592C54.0977 16.4873 53.5616 16.4772 43.8625 16.4569C35.3569 16.4367 33.5869 16.4569 33.2532 16.5783Z" fill="white"/>
<path d="M36.0854 31.5678C33.9413 32.0836 32.1815 33.9344 31.7264 36.1392C31.6455 36.5438 31.5747 36.9685 31.5747 37.0798C31.5747 37.272 31.7466 37.272 41.0513 37.272C51.3471 37.272 51.074 37.2821 52.3888 36.7056C53.026 36.4224 53.9565 35.7246 54.4015 35.1885C55.0993 34.3592 55.7061 32.9028 55.7668 31.9117L55.7972 31.4565L46.2397 31.4363C38.2498 31.4262 36.581 31.4464 36.0854 31.5678Z" fill="white"/>
</svg>
